<mxfile host="app.diagrams.net" modified="2023-04-25T05:48:51.802Z" agent="Mozilla/5.0 (Macintosh; Intel Mac OS X 10_15_7) AppleWebKit/537.36 (KHTML, like Gecko) Chrome/112.0.0.0 Safari/537.36" etag="9r66HRBpkCyaraWs4rSw" version="21.1.4" type="github">
  <diagram name="go-fmt-1.18.10" id="5d7acffa-a066-3a61-03fe-96351882024d">
    <mxGraphModel dx="1434" dy="2471" grid="1" gridSize="10" guides="1" tooltips="1" connect="1" arrows="1" fold="1" page="1" pageScale="1" pageWidth="1100" pageHeight="850" background="#ffffff" math="0" shadow="0">
      <root>
        <mxCell id="0" />
        <mxCell id="1" parent="0" />
        <mxCell id="21ea969265ad0168-47" style="edgeStyle=orthogonalEdgeStyle;html=1;labelBackgroundColor=none;startFill=0;startSize=8;endFill=1;endSize=8;fontFamily=Verdana;fontSize=12;" parent="1" source="V4z1n50acwo4eVlVMmbz-85" target="V4z1n50acwo4eVlVMmbz-30" edge="1">
          <mxGeometry relative="1" as="geometry">
            <mxPoint x="880" y="-110" as="targetPoint" />
          </mxGeometry>
        </mxCell>
        <mxCell id="21ea969265ad0168-40" style="edgeStyle=orthogonalEdgeStyle;html=1;labelBackgroundColor=default;startFill=0;startSize=26;endFill=1;endSize=8;fontFamily=Verdana;fontSize=12;rounded=0;" parent="1" source="V4z1n50acwo4eVlVMmbz-92" target="V4z1n50acwo4eVlVMmbz-85" edge="1">
          <mxGeometry relative="1" as="geometry">
            <mxPoint x="490" y="30" as="targetPoint" />
            <Array as="points">
              <mxPoint x="380" y="79" />
              <mxPoint x="380" y="-15" />
            </Array>
          </mxGeometry>
        </mxCell>
        <mxCell id="V4z1n50acwo4eVlVMmbz-17" value="pp" style="swimlane;fontStyle=0;childLayout=stackLayout;horizontal=1;startSize=26;fillColor=none;horizontalStack=0;resizeParent=1;resizeParentMax=0;resizeLast=0;collapsible=1;marginBottom=0;rounded=1;shadow=0;labelBackgroundColor=none;comic=0;strokeColor=default;strokeWidth=1;fontFamily=Verdana;fontSize=12;fontColor=default;html=1;" parent="1" vertex="1">
          <mxGeometry x="785" y="-590" width="285" height="356" as="geometry" />
        </mxCell>
        <mxCell id="V4z1n50acwo4eVlVMmbz-18" value="- buf: buffer" style="text;strokeColor=none;fillColor=none;align=left;verticalAlign=top;spacingLeft=4;spacingRight=4;overflow=hidden;rotatable=0;points=[[0,0.5],[1,0.5]];portConstraint=eastwest;rounded=1;shadow=0;labelBackgroundColor=none;comic=0;strokeWidth=1;fontFamily=Verdana;fontSize=12;fontColor=default;startSize=26;html=1;" parent="V4z1n50acwo4eVlVMmbz-17" vertex="1">
          <mxGeometry y="26" width="285" height="26" as="geometry" />
        </mxCell>
        <mxCell id="V4z1n50acwo4eVlVMmbz-19" value="- arg: any" style="text;strokeColor=none;fillColor=none;align=left;verticalAlign=top;spacingLeft=4;spacingRight=4;overflow=hidden;rotatable=0;points=[[0,0.5],[1,0.5]];portConstraint=eastwest;rounded=1;shadow=0;labelBackgroundColor=none;comic=0;strokeWidth=1;fontFamily=Verdana;fontSize=12;fontColor=default;startSize=26;html=1;" parent="V4z1n50acwo4eVlVMmbz-17" vertex="1">
          <mxGeometry y="52" width="285" height="26" as="geometry" />
        </mxCell>
        <mxCell id="V4z1n50acwo4eVlVMmbz-22" value="- value: reflect.Value" style="text;strokeColor=none;fillColor=none;align=left;verticalAlign=top;spacingLeft=4;spacingRight=4;overflow=hidden;rotatable=0;points=[[0,0.5],[1,0.5]];portConstraint=eastwest;rounded=1;shadow=0;labelBackgroundColor=none;comic=0;strokeWidth=1;fontFamily=Verdana;fontSize=12;fontColor=default;startSize=26;html=1;" parent="V4z1n50acwo4eVlVMmbz-17" vertex="1">
          <mxGeometry y="78" width="285" height="22" as="geometry" />
        </mxCell>
        <mxCell id="V4z1n50acwo4eVlVMmbz-20" value="- fmt: fmt" style="text;strokeColor=none;fillColor=none;align=left;verticalAlign=top;spacingLeft=4;spacingRight=4;overflow=hidden;rotatable=0;points=[[0,0.5],[1,0.5]];portConstraint=eastwest;rounded=1;shadow=0;labelBackgroundColor=none;comic=0;strokeWidth=1;fontFamily=Verdana;fontSize=12;fontColor=default;startSize=26;html=1;" parent="V4z1n50acwo4eVlVMmbz-17" vertex="1">
          <mxGeometry y="100" width="285" height="22" as="geometry" />
        </mxCell>
        <mxCell id="V4z1n50acwo4eVlVMmbz-24" value="- reordered: bool" style="text;strokeColor=none;fillColor=none;align=left;verticalAlign=top;spacingLeft=4;spacingRight=4;overflow=hidden;rotatable=0;points=[[0,0.5],[1,0.5]];portConstraint=eastwest;rounded=1;shadow=0;labelBackgroundColor=none;comic=0;strokeWidth=1;fontFamily=Verdana;fontSize=12;fontColor=default;startSize=26;html=1;" parent="V4z1n50acwo4eVlVMmbz-17" vertex="1">
          <mxGeometry y="122" width="285" height="26" as="geometry" />
        </mxCell>
        <mxCell id="V4z1n50acwo4eVlVMmbz-25" value="- goodArgNum: bool" style="text;strokeColor=none;fillColor=none;align=left;verticalAlign=top;spacingLeft=4;spacingRight=4;overflow=hidden;rotatable=0;points=[[0,0.5],[1,0.5]];portConstraint=eastwest;rounded=1;shadow=0;labelBackgroundColor=none;comic=0;strokeWidth=1;fontFamily=Verdana;fontSize=12;fontColor=default;startSize=26;html=1;" parent="V4z1n50acwo4eVlVMmbz-17" vertex="1">
          <mxGeometry y="148" width="285" height="26" as="geometry" />
        </mxCell>
        <mxCell id="V4z1n50acwo4eVlVMmbz-26" value="- panicking: bool" style="text;strokeColor=none;fillColor=none;align=left;verticalAlign=top;spacingLeft=4;spacingRight=4;overflow=hidden;rotatable=0;points=[[0,0.5],[1,0.5]];portConstraint=eastwest;rounded=1;shadow=0;labelBackgroundColor=none;comic=0;strokeWidth=1;fontFamily=Verdana;fontSize=12;fontColor=default;startSize=26;html=1;" parent="V4z1n50acwo4eVlVMmbz-17" vertex="1">
          <mxGeometry y="174" width="285" height="26" as="geometry" />
        </mxCell>
        <mxCell id="V4z1n50acwo4eVlVMmbz-27" value="- erroring: bool" style="text;strokeColor=none;fillColor=none;align=left;verticalAlign=top;spacingLeft=4;spacingRight=4;overflow=hidden;rotatable=0;points=[[0,0.5],[1,0.5]];portConstraint=eastwest;rounded=1;shadow=0;labelBackgroundColor=none;comic=0;strokeWidth=1;fontFamily=Verdana;fontSize=12;fontColor=default;startSize=26;html=1;" parent="V4z1n50acwo4eVlVMmbz-17" vertex="1">
          <mxGeometry y="200" width="285" height="26" as="geometry" />
        </mxCell>
        <mxCell id="V4z1n50acwo4eVlVMmbz-28" value="- wrapErrs: bool" style="text;strokeColor=none;fillColor=none;align=left;verticalAlign=top;spacingLeft=4;spacingRight=4;overflow=hidden;rotatable=0;points=[[0,0.5],[1,0.5]];portConstraint=eastwest;rounded=1;shadow=0;labelBackgroundColor=none;comic=0;strokeWidth=1;fontFamily=Verdana;fontSize=12;fontColor=default;startSize=26;html=1;" parent="V4z1n50acwo4eVlVMmbz-17" vertex="1">
          <mxGeometry y="226" width="285" height="26" as="geometry" />
        </mxCell>
        <mxCell id="V4z1n50acwo4eVlVMmbz-29" value="- wrappedErr: error" style="text;strokeColor=none;fillColor=none;align=left;verticalAlign=top;spacingLeft=4;spacingRight=4;overflow=hidden;rotatable=0;points=[[0,0.5],[1,0.5]];portConstraint=eastwest;rounded=1;shadow=0;labelBackgroundColor=none;comic=0;strokeWidth=1;fontFamily=Verdana;fontSize=12;fontColor=default;startSize=26;html=1;" parent="V4z1n50acwo4eVlVMmbz-17" vertex="1">
          <mxGeometry y="252" width="285" height="26" as="geometry" />
        </mxCell>
        <mxCell id="V4z1n50acwo4eVlVMmbz-98" value="+ doPrintf(format string, a []any): void" style="text;strokeColor=none;fillColor=none;align=left;verticalAlign=top;spacingLeft=4;spacingRight=4;overflow=hidden;rotatable=0;points=[[0,0.5],[1,0.5]];portConstraint=eastwest;rounded=1;shadow=0;labelBackgroundColor=none;comic=0;strokeWidth=1;fontFamily=Verdana;fontSize=12;fontColor=default;startSize=26;html=1;" parent="V4z1n50acwo4eVlVMmbz-17" vertex="1">
          <mxGeometry y="278" width="285" height="26" as="geometry" />
        </mxCell>
        <mxCell id="Ibjzuw5B-IYvQQM0vuAL-17" value="+ pringArg(arg any, verb rune)" style="text;strokeColor=none;fillColor=none;align=left;verticalAlign=top;spacingLeft=4;spacingRight=4;overflow=hidden;rotatable=0;points=[[0,0.5],[1,0.5]];portConstraint=eastwest;rounded=1;shadow=0;labelBackgroundColor=none;comic=0;strokeWidth=1;fontFamily=Verdana;fontSize=12;fontColor=default;startSize=26;html=1;" parent="V4z1n50acwo4eVlVMmbz-17" vertex="1">
          <mxGeometry y="304" width="285" height="26" as="geometry" />
        </mxCell>
        <mxCell id="dQgiU0AN3nxCyF5o8pJ6-10" value="+ badVerb(verb rune)" style="text;strokeColor=none;fillColor=none;align=left;verticalAlign=top;spacingLeft=4;spacingRight=4;overflow=hidden;rotatable=0;points=[[0,0.5],[1,0.5]];portConstraint=eastwest;rounded=1;shadow=0;labelBackgroundColor=none;comic=0;strokeWidth=1;fontFamily=Verdana;fontSize=12;fontColor=default;startSize=26;html=1;" parent="V4z1n50acwo4eVlVMmbz-17" vertex="1">
          <mxGeometry y="330" width="285" height="26" as="geometry" />
        </mxCell>
        <mxCell id="V4z1n50acwo4eVlVMmbz-30" value="&lt;p style=&quot;margin:0px;margin-top:4px;text-align:center;text-decoration:underline;&quot;&gt;&lt;b&gt;ppFree:sync.Pool&lt;/b&gt;&lt;/p&gt;&lt;hr&gt;&lt;p style=&quot;margin:0px;margin-left:8px;&quot;&gt;New: func() any { return new(pp) }&lt;/p&gt;" style="verticalAlign=top;align=left;overflow=fill;fontSize=12;fontFamily=Helvetica;html=1;rounded=1;shadow=0;labelBackgroundColor=none;comic=0;strokeColor=default;strokeWidth=1;fontColor=default;startSize=26;fillColor=#e0e0e0;" parent="1" vertex="1">
          <mxGeometry x="570" y="-437" width="210" height="90" as="geometry" />
        </mxCell>
        <mxCell id="V4z1n50acwo4eVlVMmbz-32" value="" style="endArrow=block;endFill=1;html=1;edgeStyle=orthogonalEdgeStyle;align=left;verticalAlign=top;rounded=0;fontFamily=Verdana;fontSize=12;fontColor=default;startSize=26;exitX=0.5;exitY=0;exitDx=0;exitDy=0;entryX=0.5;entryY=0;entryDx=0;entryDy=0;" parent="1" source="V4z1n50acwo4eVlVMmbz-30" target="V4z1n50acwo4eVlVMmbz-17" edge="1">
          <mxGeometry x="-1" relative="1" as="geometry">
            <mxPoint x="530" y="-270" as="sourcePoint" />
            <mxPoint x="880" y="-300" as="targetPoint" />
            <Array as="points">
              <mxPoint x="695" y="-640" />
              <mxPoint x="928" y="-640" />
            </Array>
          </mxGeometry>
        </mxCell>
        <mxCell id="V4z1n50acwo4eVlVMmbz-35" value="fmt" style="swimlane;fontStyle=0;childLayout=stackLayout;horizontal=1;startSize=26;fillColor=none;horizontalStack=0;resizeParent=1;resizeParentMax=0;resizeLast=0;collapsible=1;marginBottom=0;rounded=1;shadow=0;labelBackgroundColor=none;comic=0;strokeColor=default;strokeWidth=1;fontFamily=Verdana;fontSize=12;fontColor=default;html=1;" parent="1" vertex="1">
          <mxGeometry x="240" y="-650" width="290" height="286" as="geometry" />
        </mxCell>
        <mxCell id="V4z1n50acwo4eVlVMmbz-36" value="- buf: *buffer" style="text;strokeColor=none;fillColor=none;align=left;verticalAlign=top;spacingLeft=4;spacingRight=4;overflow=hidden;rotatable=0;points=[[0,0.5],[1,0.5]];portConstraint=eastwest;rounded=1;shadow=0;labelBackgroundColor=none;comic=0;strokeWidth=1;fontFamily=Verdana;fontSize=12;fontColor=default;startSize=26;html=1;" parent="V4z1n50acwo4eVlVMmbz-35" vertex="1">
          <mxGeometry y="26" width="290" height="26" as="geometry" />
        </mxCell>
        <mxCell id="V4z1n50acwo4eVlVMmbz-37" value="- fmtFlags: fmtFlags" style="text;strokeColor=none;fillColor=none;align=left;verticalAlign=top;spacingLeft=4;spacingRight=4;overflow=hidden;rotatable=0;points=[[0,0.5],[1,0.5]];portConstraint=eastwest;rounded=1;shadow=0;labelBackgroundColor=none;comic=0;strokeWidth=1;fontFamily=Verdana;fontSize=12;fontColor=default;startSize=26;html=1;" parent="V4z1n50acwo4eVlVMmbz-35" vertex="1">
          <mxGeometry y="52" width="290" height="26" as="geometry" />
        </mxCell>
        <mxCell id="V4z1n50acwo4eVlVMmbz-38" value="- wid: int" style="text;strokeColor=none;fillColor=none;align=left;verticalAlign=top;spacingLeft=4;spacingRight=4;overflow=hidden;rotatable=0;points=[[0,0.5],[1,0.5]];portConstraint=eastwest;rounded=1;shadow=0;labelBackgroundColor=none;comic=0;strokeWidth=1;fontFamily=Verdana;fontSize=12;fontColor=default;startSize=26;html=1;" parent="V4z1n50acwo4eVlVMmbz-35" vertex="1">
          <mxGeometry y="78" width="290" height="26" as="geometry" />
        </mxCell>
        <mxCell id="V4z1n50acwo4eVlVMmbz-39" value="- prec: int" style="text;strokeColor=none;fillColor=none;align=left;verticalAlign=top;spacingLeft=4;spacingRight=4;overflow=hidden;rotatable=0;points=[[0,0.5],[1,0.5]];portConstraint=eastwest;rounded=1;shadow=0;labelBackgroundColor=none;comic=0;strokeWidth=1;fontFamily=Verdana;fontSize=12;fontColor=default;startSize=26;html=1;" parent="V4z1n50acwo4eVlVMmbz-35" vertex="1">
          <mxGeometry y="104" width="290" height="26" as="geometry" />
        </mxCell>
        <mxCell id="V4z1n50acwo4eVlVMmbz-40" value="- intbuf: [68]byte" style="text;strokeColor=none;fillColor=none;align=left;verticalAlign=top;spacingLeft=4;spacingRight=4;overflow=hidden;rotatable=0;points=[[0,0.5],[1,0.5]];portConstraint=eastwest;rounded=1;shadow=0;labelBackgroundColor=none;comic=0;strokeWidth=1;fontFamily=Verdana;fontSize=12;fontColor=default;startSize=26;html=1;" parent="V4z1n50acwo4eVlVMmbz-35" vertex="1">
          <mxGeometry y="130" width="290" height="26" as="geometry" />
        </mxCell>
        <mxCell id="V4z1n50acwo4eVlVMmbz-42" value="+ init(buf *buffer): void" style="text;strokeColor=none;fillColor=none;align=left;verticalAlign=top;spacingLeft=4;spacingRight=4;overflow=hidden;rotatable=0;points=[[0,0.5],[1,0.5]];portConstraint=eastwest;rounded=1;shadow=0;labelBackgroundColor=none;comic=0;strokeWidth=1;fontFamily=Verdana;fontSize=12;fontColor=default;startSize=26;html=1;" parent="V4z1n50acwo4eVlVMmbz-35" vertex="1">
          <mxGeometry y="156" width="290" height="26" as="geometry" />
        </mxCell>
        <mxCell id="V4z1n50acwo4eVlVMmbz-55" value="+ clearflags: void" style="text;strokeColor=none;fillColor=none;align=left;verticalAlign=top;spacingLeft=4;spacingRight=4;overflow=hidden;rotatable=0;points=[[0,0.5],[1,0.5]];portConstraint=eastwest;rounded=1;shadow=0;labelBackgroundColor=none;comic=0;strokeWidth=1;fontFamily=Verdana;fontSize=12;fontColor=default;startSize=26;html=1;" parent="V4z1n50acwo4eVlVMmbz-35" vertex="1">
          <mxGeometry y="182" width="290" height="26" as="geometry" />
        </mxCell>
        <mxCell id="dQgiU0AN3nxCyF5o8pJ6-11" value="+&amp;nbsp;padString(s string)" style="text;strokeColor=none;fillColor=none;align=left;verticalAlign=top;spacingLeft=4;spacingRight=4;overflow=hidden;rotatable=0;points=[[0,0.5],[1,0.5]];portConstraint=eastwest;rounded=1;shadow=0;labelBackgroundColor=none;comic=0;strokeWidth=1;fontFamily=Verdana;fontSize=12;fontColor=default;startSize=26;html=1;" parent="V4z1n50acwo4eVlVMmbz-35" vertex="1">
          <mxGeometry y="208" width="290" height="26" as="geometry" />
        </mxCell>
        <mxCell id="dQgiU0AN3nxCyF5o8pJ6-12" value="+ fmtS(s string)" style="text;strokeColor=none;fillColor=none;align=left;verticalAlign=top;spacingLeft=4;spacingRight=4;overflow=hidden;rotatable=0;points=[[0,0.5],[1,0.5]];portConstraint=eastwest;rounded=1;shadow=0;labelBackgroundColor=none;comic=0;strokeWidth=1;fontFamily=Verdana;fontSize=12;fontColor=default;startSize=26;html=1;" parent="V4z1n50acwo4eVlVMmbz-35" vertex="1">
          <mxGeometry y="234" width="290" height="26" as="geometry" />
        </mxCell>
        <mxCell id="dQgiU0AN3nxCyF5o8pJ6-9" value="+ fmtPointer(value reflect.Value, ver rune)" style="text;strokeColor=none;fillColor=none;align=left;verticalAlign=top;spacingLeft=4;spacingRight=4;overflow=hidden;rotatable=0;points=[[0,0.5],[1,0.5]];portConstraint=eastwest;rounded=1;shadow=0;labelBackgroundColor=none;comic=0;strokeWidth=1;fontFamily=Verdana;fontSize=12;fontColor=default;startSize=26;html=1;" parent="V4z1n50acwo4eVlVMmbz-35" vertex="1">
          <mxGeometry y="260" width="290" height="26" as="geometry" />
        </mxCell>
        <mxCell id="V4z1n50acwo4eVlVMmbz-44" style="edgeStyle=orthogonalEdgeStyle;rounded=0;orthogonalLoop=1;jettySize=auto;html=1;entryX=0.5;entryY=0;entryDx=0;entryDy=0;fontFamily=Verdana;fontSize=12;fontColor=default;startSize=26;" parent="1" source="V4z1n50acwo4eVlVMmbz-20" target="V4z1n50acwo4eVlVMmbz-35" edge="1">
          <mxGeometry relative="1" as="geometry" />
        </mxCell>
        <mxCell id="V4z1n50acwo4eVlVMmbz-45" style="edgeStyle=orthogonalEdgeStyle;rounded=0;orthogonalLoop=1;jettySize=auto;html=1;exitX=0;exitY=0.5;exitDx=0;exitDy=0;entryX=1;entryY=0.5;entryDx=0;entryDy=0;fontFamily=Verdana;fontSize=12;fontColor=default;startSize=26;" parent="1" source="V4z1n50acwo4eVlVMmbz-87" target="V4z1n50acwo4eVlVMmbz-42" edge="1">
          <mxGeometry relative="1" as="geometry" />
        </mxCell>
        <mxCell id="V4z1n50acwo4eVlVMmbz-50" style="edgeStyle=orthogonalEdgeStyle;rounded=0;orthogonalLoop=1;jettySize=auto;html=1;entryX=0.5;entryY=0;entryDx=0;entryDy=0;fontFamily=Verdana;fontSize=12;fontColor=default;startSize=26;" parent="1" source="V4z1n50acwo4eVlVMmbz-42" target="V4z1n50acwo4eVlVMmbz-51" edge="1">
          <mxGeometry relative="1" as="geometry">
            <mxPoint x="110" y="-602" as="targetPoint" />
          </mxGeometry>
        </mxCell>
        <mxCell id="V4z1n50acwo4eVlVMmbz-51" value="init(buf *buffer)" style="swimlane;fontStyle=0;childLayout=stackLayout;horizontal=1;startSize=26;fillColor=#e0e0e0;horizontalStack=0;resizeParent=1;resizeParentMax=0;resizeLast=0;collapsible=1;marginBottom=0;rounded=1;shadow=0;labelBackgroundColor=none;comic=0;strokeColor=default;strokeWidth=1;fontFamily=Verdana;fontSize=12;fontColor=default;html=1;swimlaneFillColor=#ffffff;" parent="1" vertex="1">
          <mxGeometry x="40" y="-425" width="140" height="78" as="geometry" />
        </mxCell>
        <mxCell id="V4z1n50acwo4eVlVMmbz-52" value="f.buf = buf" style="text;strokeColor=none;fillColor=none;align=left;verticalAlign=top;spacingLeft=4;spacingRight=4;overflow=hidden;rotatable=0;points=[[0,0.5],[1,0.5]];portConstraint=eastwest;rounded=1;shadow=0;labelBackgroundColor=none;comic=0;strokeWidth=1;fontFamily=Verdana;fontSize=12;fontColor=default;startSize=26;html=1;" parent="V4z1n50acwo4eVlVMmbz-51" vertex="1">
          <mxGeometry y="26" width="140" height="26" as="geometry" />
        </mxCell>
        <mxCell id="V4z1n50acwo4eVlVMmbz-53" value="f.clearflags()" style="text;strokeColor=none;fillColor=none;align=left;verticalAlign=top;spacingLeft=4;spacingRight=4;overflow=hidden;rotatable=0;points=[[0,0.5],[1,0.5]];portConstraint=eastwest;rounded=1;shadow=0;labelBackgroundColor=none;comic=0;strokeWidth=1;fontFamily=Verdana;fontSize=12;fontColor=default;startSize=26;html=1;" parent="V4z1n50acwo4eVlVMmbz-51" vertex="1">
          <mxGeometry y="52" width="140" height="26" as="geometry" />
        </mxCell>
        <mxCell id="V4z1n50acwo4eVlVMmbz-56" style="edgeStyle=orthogonalEdgeStyle;rounded=0;orthogonalLoop=1;jettySize=auto;html=1;entryX=0;entryY=0.5;entryDx=0;entryDy=0;fontFamily=Verdana;fontSize=12;fontColor=default;startSize=26;" parent="1" source="V4z1n50acwo4eVlVMmbz-53" target="V4z1n50acwo4eVlVMmbz-55" edge="1">
          <mxGeometry relative="1" as="geometry" />
        </mxCell>
        <mxCell id="V4z1n50acwo4eVlVMmbz-57" style="edgeStyle=orthogonalEdgeStyle;rounded=0;orthogonalLoop=1;jettySize=auto;html=1;fontFamily=Verdana;fontSize=12;fontColor=default;startSize=26;" parent="1" source="V4z1n50acwo4eVlVMmbz-55" target="V4z1n50acwo4eVlVMmbz-58" edge="1">
          <mxGeometry relative="1" as="geometry">
            <mxPoint x="290" y="-320" as="targetPoint" />
            <Array as="points">
              <mxPoint x="540" y="-455" />
              <mxPoint x="540" y="-340" />
              <mxPoint x="110" y="-340" />
            </Array>
          </mxGeometry>
        </mxCell>
        <mxCell id="V4z1n50acwo4eVlVMmbz-58" value="clearflags()" style="swimlane;fontStyle=0;childLayout=stackLayout;horizontal=1;startSize=26;fillColor=#e0e0e0;horizontalStack=0;resizeParent=1;resizeParentMax=0;resizeLast=0;collapsible=1;marginBottom=0;rounded=1;shadow=0;labelBackgroundColor=none;comic=0;strokeColor=default;strokeWidth=1;fontFamily=Verdana;fontSize=12;fontColor=default;html=1;align=center;verticalAlign=middle;gradientColor=none;spacingLeft=4;spacingRight=4;swimlaneFillColor=#ffffff;" parent="1" vertex="1">
          <mxGeometry x="25" y="-320" width="170" height="52" as="geometry" />
        </mxCell>
        <mxCell id="V4z1n50acwo4eVlVMmbz-59" value="f.fmtFlags = fmtFlags{}" style="text;strokeColor=none;fillColor=none;align=left;verticalAlign=top;spacingLeft=4;spacingRight=4;overflow=hidden;rotatable=0;points=[[0,0.5],[1,0.5]];portConstraint=eastwest;rounded=1;shadow=0;labelBackgroundColor=none;comic=0;strokeWidth=1;fontFamily=Verdana;fontSize=12;fontColor=default;startSize=26;html=1;" parent="V4z1n50acwo4eVlVMmbz-58" vertex="1">
          <mxGeometry y="26" width="170" height="26" as="geometry" />
        </mxCell>
        <mxCell id="V4z1n50acwo4eVlVMmbz-62" style="edgeStyle=orthogonalEdgeStyle;rounded=0;orthogonalLoop=1;jettySize=auto;html=1;fontFamily=Verdana;fontSize=12;fontColor=default;startSize=26;" parent="1" source="V4z1n50acwo4eVlVMmbz-37" target="V4z1n50acwo4eVlVMmbz-63" edge="1">
          <mxGeometry relative="1" as="geometry">
            <mxPoint x="160" y="-680" as="targetPoint" />
          </mxGeometry>
        </mxCell>
        <mxCell id="V4z1n50acwo4eVlVMmbz-63" value="fmtFlags" style="swimlane;fontStyle=0;childLayout=stackLayout;horizontal=1;startSize=26;fillColor=none;horizontalStack=0;resizeParent=1;resizeParentMax=0;resizeLast=0;collapsible=1;marginBottom=0;rounded=1;shadow=0;labelBackgroundColor=none;comic=0;strokeColor=default;strokeWidth=1;fontFamily=Verdana;fontSize=12;fontColor=default;html=1;" parent="1" vertex="1">
          <mxGeometry x="25" y="-980" width="210" height="260" as="geometry" />
        </mxCell>
        <mxCell id="V4z1n50acwo4eVlVMmbz-64" value="+ widPresent: bool" style="text;strokeColor=none;fillColor=none;align=left;verticalAlign=top;spacingLeft=4;spacingRight=4;overflow=hidden;rotatable=0;points=[[0,0.5],[1,0.5]];portConstraint=eastwest;rounded=1;shadow=0;labelBackgroundColor=none;comic=0;strokeWidth=1;fontFamily=Verdana;fontSize=12;fontColor=default;startSize=26;html=1;" parent="V4z1n50acwo4eVlVMmbz-63" vertex="1">
          <mxGeometry y="26" width="210" height="26" as="geometry" />
        </mxCell>
        <mxCell id="V4z1n50acwo4eVlVMmbz-65" value="+ precPresent: bool" style="text;strokeColor=none;fillColor=none;align=left;verticalAlign=top;spacingLeft=4;spacingRight=4;overflow=hidden;rotatable=0;points=[[0,0.5],[1,0.5]];portConstraint=eastwest;rounded=1;shadow=0;labelBackgroundColor=none;comic=0;strokeWidth=1;fontFamily=Verdana;fontSize=12;fontColor=default;startSize=26;html=1;" parent="V4z1n50acwo4eVlVMmbz-63" vertex="1">
          <mxGeometry y="52" width="210" height="26" as="geometry" />
        </mxCell>
        <mxCell id="V4z1n50acwo4eVlVMmbz-66" value="+ minus: bool" style="text;strokeColor=none;fillColor=none;align=left;verticalAlign=top;spacingLeft=4;spacingRight=4;overflow=hidden;rotatable=0;points=[[0,0.5],[1,0.5]];portConstraint=eastwest;rounded=1;shadow=0;labelBackgroundColor=none;comic=0;strokeWidth=1;fontFamily=Verdana;fontSize=12;fontColor=default;startSize=26;html=1;" parent="V4z1n50acwo4eVlVMmbz-63" vertex="1">
          <mxGeometry y="78" width="210" height="26" as="geometry" />
        </mxCell>
        <mxCell id="V4z1n50acwo4eVlVMmbz-67" value="+ plus: bool" style="text;strokeColor=none;fillColor=none;align=left;verticalAlign=top;spacingLeft=4;spacingRight=4;overflow=hidden;rotatable=0;points=[[0,0.5],[1,0.5]];portConstraint=eastwest;rounded=1;shadow=0;labelBackgroundColor=none;comic=0;strokeWidth=1;fontFamily=Verdana;fontSize=12;fontColor=default;startSize=26;html=1;" parent="V4z1n50acwo4eVlVMmbz-63" vertex="1">
          <mxGeometry y="104" width="210" height="26" as="geometry" />
        </mxCell>
        <mxCell id="V4z1n50acwo4eVlVMmbz-68" value="+ sharp: bool" style="text;strokeColor=none;fillColor=none;align=left;verticalAlign=top;spacingLeft=4;spacingRight=4;overflow=hidden;rotatable=0;points=[[0,0.5],[1,0.5]];portConstraint=eastwest;rounded=1;shadow=0;labelBackgroundColor=none;comic=0;strokeWidth=1;fontFamily=Verdana;fontSize=12;fontColor=default;startSize=26;html=1;" parent="V4z1n50acwo4eVlVMmbz-63" vertex="1">
          <mxGeometry y="130" width="210" height="26" as="geometry" />
        </mxCell>
        <mxCell id="V4z1n50acwo4eVlVMmbz-69" value="+ space: bool" style="text;strokeColor=none;fillColor=none;align=left;verticalAlign=top;spacingLeft=4;spacingRight=4;overflow=hidden;rotatable=0;points=[[0,0.5],[1,0.5]];portConstraint=eastwest;rounded=1;shadow=0;labelBackgroundColor=none;comic=0;strokeWidth=1;fontFamily=Verdana;fontSize=12;fontColor=default;startSize=26;html=1;" parent="V4z1n50acwo4eVlVMmbz-63" vertex="1">
          <mxGeometry y="156" width="210" height="26" as="geometry" />
        </mxCell>
        <mxCell id="V4z1n50acwo4eVlVMmbz-70" value="+ zero: bool" style="text;strokeColor=none;fillColor=none;align=left;verticalAlign=top;spacingLeft=4;spacingRight=4;overflow=hidden;rotatable=0;points=[[0,0.5],[1,0.5]];portConstraint=eastwest;rounded=1;shadow=0;labelBackgroundColor=none;comic=0;strokeWidth=1;fontFamily=Verdana;fontSize=12;fontColor=default;startSize=26;html=1;" parent="V4z1n50acwo4eVlVMmbz-63" vertex="1">
          <mxGeometry y="182" width="210" height="26" as="geometry" />
        </mxCell>
        <mxCell id="V4z1n50acwo4eVlVMmbz-71" value="+ plusV: bool" style="text;strokeColor=none;fillColor=none;align=left;verticalAlign=top;spacingLeft=4;spacingRight=4;overflow=hidden;rotatable=0;points=[[0,0.5],[1,0.5]];portConstraint=eastwest;rounded=1;shadow=0;labelBackgroundColor=none;comic=0;strokeWidth=1;fontFamily=Verdana;fontSize=12;fontColor=default;startSize=26;html=1;" parent="V4z1n50acwo4eVlVMmbz-63" vertex="1">
          <mxGeometry y="208" width="210" height="26" as="geometry" />
        </mxCell>
        <mxCell id="V4z1n50acwo4eVlVMmbz-73" value="+ sharpV: bool" style="text;strokeColor=none;fillColor=none;align=left;verticalAlign=top;spacingLeft=4;spacingRight=4;overflow=hidden;rotatable=0;points=[[0,0.5],[1,0.5]];portConstraint=eastwest;rounded=1;shadow=0;labelBackgroundColor=none;comic=0;strokeWidth=1;fontFamily=Verdana;fontSize=12;fontColor=default;startSize=26;html=1;" parent="V4z1n50acwo4eVlVMmbz-63" vertex="1">
          <mxGeometry y="234" width="210" height="26" as="geometry" />
        </mxCell>
        <mxCell id="V4z1n50acwo4eVlVMmbz-84" value="newPrinter() *pp" style="swimlane;fontStyle=0;childLayout=stackLayout;horizontal=1;startSize=26;fillColor=#e0e0e0;horizontalStack=0;resizeParent=1;resizeParentMax=0;resizeLast=0;collapsible=1;marginBottom=0;rounded=1;shadow=0;labelBackgroundColor=none;comic=0;strokeColor=default;strokeWidth=1;fontFamily=Verdana;fontSize=12;fontColor=default;html=1;gradientColor=none;spacingLeft=4;spacingRight=4;swimlaneFillColor=#ffffff;" parent="1" vertex="1">
          <mxGeometry x="450" y="-40" width="140" height="130" as="geometry" />
        </mxCell>
        <mxCell id="V4z1n50acwo4eVlVMmbz-85" value="&lt;span style=&quot;font-family: Helvetica;&quot;&gt;p := ppFree.Get().(*pp)&lt;/span&gt;" style="text;strokeColor=none;fillColor=none;align=left;verticalAlign=top;spacingLeft=4;spacingRight=4;overflow=hidden;rotatable=0;points=[[0,0.5],[1,0.5]];portConstraint=eastwest;rounded=1;shadow=0;labelBackgroundColor=none;comic=0;strokeWidth=1;fontFamily=Verdana;fontSize=12;fontColor=default;startSize=26;html=1;" parent="V4z1n50acwo4eVlVMmbz-84" vertex="1">
          <mxGeometry y="26" width="140" height="26" as="geometry" />
        </mxCell>
        <mxCell id="V4z1n50acwo4eVlVMmbz-86" value="&lt;span style=&quot;font-family: Helvetica;&quot;&gt;...&lt;/span&gt;" style="text;strokeColor=none;fillColor=none;align=left;verticalAlign=top;spacingLeft=4;spacingRight=4;overflow=hidden;rotatable=0;points=[[0,0.5],[1,0.5]];portConstraint=eastwest;rounded=1;shadow=0;labelBackgroundColor=none;comic=0;strokeWidth=1;fontFamily=Verdana;fontSize=12;fontColor=default;startSize=26;html=1;" parent="V4z1n50acwo4eVlVMmbz-84" vertex="1">
          <mxGeometry y="52" width="140" height="26" as="geometry" />
        </mxCell>
        <mxCell id="V4z1n50acwo4eVlVMmbz-87" value="&lt;span style=&quot;font-family: Helvetica;&quot;&gt;p.fmt.init(&amp;amp;p.buf)&lt;/span&gt;" style="text;strokeColor=none;fillColor=none;align=left;verticalAlign=top;spacingLeft=4;spacingRight=4;overflow=hidden;rotatable=0;points=[[0,0.5],[1,0.5]];portConstraint=eastwest;rounded=1;shadow=0;labelBackgroundColor=none;comic=0;strokeWidth=1;fontFamily=Verdana;fontSize=12;fontColor=default;startSize=26;html=1;" parent="V4z1n50acwo4eVlVMmbz-84" vertex="1">
          <mxGeometry y="78" width="140" height="26" as="geometry" />
        </mxCell>
        <mxCell id="V4z1n50acwo4eVlVMmbz-88" value="return p" style="text;strokeColor=none;fillColor=none;align=left;verticalAlign=top;spacingLeft=4;spacingRight=4;overflow=hidden;rotatable=0;points=[[0,0.5],[1,0.5]];portConstraint=eastwest;rounded=1;shadow=0;labelBackgroundColor=none;comic=0;strokeWidth=1;fontFamily=Verdana;fontSize=12;fontColor=default;startSize=26;html=1;" parent="V4z1n50acwo4eVlVMmbz-84" vertex="1">
          <mxGeometry y="104" width="140" height="26" as="geometry" />
        </mxCell>
        <mxCell id="V4z1n50acwo4eVlVMmbz-90" style="edgeStyle=orthogonalEdgeStyle;rounded=0;orthogonalLoop=1;jettySize=auto;html=1;entryX=1;entryY=0.5;entryDx=0;entryDy=0;fontFamily=Verdana;fontSize=12;fontColor=default;startSize=26;" parent="1" source="V4z1n50acwo4eVlVMmbz-88" target="V4z1n50acwo4eVlVMmbz-92" edge="1">
          <mxGeometry relative="1" as="geometry">
            <Array as="points">
              <mxPoint x="450" y="67" />
              <mxPoint x="450" y="79" />
            </Array>
          </mxGeometry>
        </mxCell>
        <mxCell id="V4z1n50acwo4eVlVMmbz-91" value="Sprintf(format string, a ...any) string" style="swimlane;fontStyle=0;childLayout=stackLayout;horizontal=1;startSize=26;fillColor=#e0e0e0;horizontalStack=0;resizeParent=1;resizeParentMax=0;resizeLast=0;collapsible=1;marginBottom=0;rounded=1;shadow=0;labelBackgroundColor=none;comic=0;strokeColor=default;strokeWidth=1;fontFamily=Verdana;fontSize=12;fontColor=default;html=1;swimlaneFillColor=#ffffff;" parent="1" vertex="1">
          <mxGeometry x="25" y="40" width="270" height="156" as="geometry" />
        </mxCell>
        <mxCell id="V4z1n50acwo4eVlVMmbz-92" value="&lt;span style=&quot;font-family: Helvetica;&quot;&gt;p := newPrinter()&lt;/span&gt;" style="text;strokeColor=none;fillColor=none;align=left;verticalAlign=top;spacingLeft=4;spacingRight=4;overflow=hidden;rotatable=0;points=[[0,0.5],[1,0.5]];portConstraint=eastwest;rounded=1;shadow=0;labelBackgroundColor=none;comic=0;strokeWidth=1;fontFamily=Verdana;fontSize=12;fontColor=default;startSize=26;html=1;" parent="V4z1n50acwo4eVlVMmbz-91" vertex="1">
          <mxGeometry y="26" width="270" height="26" as="geometry" />
        </mxCell>
        <mxCell id="V4z1n50acwo4eVlVMmbz-93" value="p.doPrintf(format, a)" style="text;strokeColor=none;fillColor=none;align=left;verticalAlign=top;spacingLeft=4;spacingRight=4;overflow=hidden;rotatable=0;points=[[0,0.5],[1,0.5]];portConstraint=eastwest;rounded=1;shadow=0;labelBackgroundColor=none;comic=0;strokeWidth=1;fontFamily=Verdana;fontSize=12;fontColor=default;startSize=26;html=1;" parent="V4z1n50acwo4eVlVMmbz-91" vertex="1">
          <mxGeometry y="52" width="270" height="26" as="geometry" />
        </mxCell>
        <mxCell id="V4z1n50acwo4eVlVMmbz-95" value="s := string(p.buf)" style="text;strokeColor=none;fillColor=none;align=left;verticalAlign=top;spacingLeft=4;spacingRight=4;overflow=hidden;rotatable=0;points=[[0,0.5],[1,0.5]];portConstraint=eastwest;rounded=1;shadow=0;labelBackgroundColor=none;comic=0;strokeWidth=1;fontFamily=Verdana;fontSize=12;fontColor=default;startSize=26;html=1;" parent="V4z1n50acwo4eVlVMmbz-91" vertex="1">
          <mxGeometry y="78" width="270" height="26" as="geometry" />
        </mxCell>
        <mxCell id="V4z1n50acwo4eVlVMmbz-94" value="p.free()" style="text;strokeColor=none;fillColor=none;align=left;verticalAlign=top;spacingLeft=4;spacingRight=4;overflow=hidden;rotatable=0;points=[[0,0.5],[1,0.5]];portConstraint=eastwest;rounded=1;shadow=0;labelBackgroundColor=none;comic=0;strokeWidth=1;fontFamily=Verdana;fontSize=12;fontColor=default;startSize=26;html=1;" parent="V4z1n50acwo4eVlVMmbz-91" vertex="1">
          <mxGeometry y="104" width="270" height="26" as="geometry" />
        </mxCell>
        <mxCell id="V4z1n50acwo4eVlVMmbz-96" value="return s" style="text;strokeColor=none;fillColor=none;align=left;verticalAlign=top;spacingLeft=4;spacingRight=4;overflow=hidden;rotatable=0;points=[[0,0.5],[1,0.5]];portConstraint=eastwest;rounded=1;shadow=0;labelBackgroundColor=none;comic=0;strokeWidth=1;fontFamily=Verdana;fontSize=12;fontColor=default;startSize=26;html=1;" parent="V4z1n50acwo4eVlVMmbz-91" vertex="1">
          <mxGeometry y="130" width="270" height="26" as="geometry" />
        </mxCell>
        <mxCell id="V4z1n50acwo4eVlVMmbz-99" style="edgeStyle=orthogonalEdgeStyle;rounded=0;orthogonalLoop=1;jettySize=auto;html=1;entryX=0;entryY=0.5;entryDx=0;entryDy=0;fontFamily=Verdana;fontSize=12;fontColor=default;startSize=26;" parent="1" source="V4z1n50acwo4eVlVMmbz-93" target="V4z1n50acwo4eVlVMmbz-98" edge="1">
          <mxGeometry relative="1" as="geometry">
            <Array as="points">
              <mxPoint x="730" y="105" />
              <mxPoint x="730" y="-299" />
            </Array>
          </mxGeometry>
        </mxCell>
        <mxCell id="V4z1n50acwo4eVlVMmbz-100" style="edgeStyle=orthogonalEdgeStyle;rounded=0;orthogonalLoop=1;jettySize=auto;html=1;fontFamily=Verdana;fontSize=12;fontColor=default;startSize=26;" parent="1" source="V4z1n50acwo4eVlVMmbz-98" target="V4z1n50acwo4eVlVMmbz-101" edge="1">
          <mxGeometry relative="1" as="geometry">
            <mxPoint x="1030" y="-100" as="targetPoint" />
          </mxGeometry>
        </mxCell>
        <mxCell id="V4z1n50acwo4eVlVMmbz-101" value="gogo(format string, a []any)" style="swimlane;fontStyle=0;childLayout=stackLayout;horizontal=1;startSize=26;fillColor=none;horizontalStack=0;resizeParent=1;resizeParentMax=0;resizeLast=0;collapsible=1;marginBottom=0;rounded=1;shadow=0;labelBackgroundColor=none;comic=0;strokeColor=default;strokeWidth=1;fontFamily=Verdana;fontSize=12;fontColor=default;html=1;" parent="1" vertex="1">
          <mxGeometry x="960" y="-170" width="260" height="286" as="geometry" />
        </mxCell>
        <mxCell id="V4z1n50acwo4eVlVMmbz-102" value="end := len(format)&lt;span style=&quot;white-space: pre;&quot;&gt; &lt;/span&gt;&lt;span style=&quot;white-space: pre;&quot;&gt; &lt;/span&gt;// 字符串长度" style="text;strokeColor=none;fillColor=none;align=left;verticalAlign=top;spacingLeft=4;spacingRight=4;overflow=hidden;rotatable=0;points=[[0,0.5],[1,0.5]];portConstraint=eastwest;rounded=1;shadow=0;labelBackgroundColor=none;comic=0;strokeWidth=1;fontFamily=Verdana;fontSize=12;fontColor=default;startSize=26;html=1;" parent="V4z1n50acwo4eVlVMmbz-101" vertex="1">
          <mxGeometry y="26" width="260" height="26" as="geometry" />
        </mxCell>
        <mxCell id="V4z1n50acwo4eVlVMmbz-103" value="argNum := 0" style="text;strokeColor=none;fillColor=none;align=left;verticalAlign=top;spacingLeft=4;spacingRight=4;overflow=hidden;rotatable=0;points=[[0,0.5],[1,0.5]];portConstraint=eastwest;rounded=1;shadow=0;labelBackgroundColor=none;comic=0;strokeWidth=1;fontFamily=Verdana;fontSize=12;fontColor=default;startSize=26;html=1;" parent="V4z1n50acwo4eVlVMmbz-101" vertex="1">
          <mxGeometry y="52" width="260" height="26" as="geometry" />
        </mxCell>
        <mxCell id="V4z1n50acwo4eVlVMmbz-104" value="afterIndex := false" style="text;strokeColor=none;fillColor=none;align=left;verticalAlign=top;spacingLeft=4;spacingRight=4;overflow=hidden;rotatable=0;points=[[0,0.5],[1,0.5]];portConstraint=eastwest;rounded=1;shadow=0;labelBackgroundColor=none;comic=0;strokeWidth=1;fontFamily=Verdana;fontSize=12;fontColor=default;startSize=26;html=1;" parent="V4z1n50acwo4eVlVMmbz-101" vertex="1">
          <mxGeometry y="78" width="260" height="26" as="geometry" />
        </mxCell>
        <mxCell id="V4z1n50acwo4eVlVMmbz-105" value="p.reordered = false" style="text;strokeColor=none;fillColor=none;align=left;verticalAlign=top;spacingLeft=4;spacingRight=4;overflow=hidden;rotatable=0;points=[[0,0.5],[1,0.5]];portConstraint=eastwest;rounded=1;shadow=0;labelBackgroundColor=none;comic=0;strokeWidth=1;fontFamily=Verdana;fontSize=12;fontColor=default;startSize=26;html=1;" parent="V4z1n50acwo4eVlVMmbz-101" vertex="1">
          <mxGeometry y="104" width="260" height="26" as="geometry" />
        </mxCell>
        <mxCell id="V4z1n50acwo4eVlVMmbz-106" value="&lt;b&gt;formatLoop:&lt;/b&gt;" style="text;strokeColor=none;fillColor=none;align=left;verticalAlign=top;spacingLeft=4;spacingRight=4;overflow=hidden;rotatable=0;points=[[0,0.5],[1,0.5]];portConstraint=eastwest;rounded=1;shadow=0;labelBackgroundColor=none;comic=0;strokeWidth=1;fontFamily=Verdana;fontSize=12;fontColor=default;startSize=26;html=1;" parent="V4z1n50acwo4eVlVMmbz-101" vertex="1">
          <mxGeometry y="130" width="260" height="26" as="geometry" />
        </mxCell>
        <mxCell id="V4z1n50acwo4eVlVMmbz-107" value="&amp;nbsp; for := 0; i &amp;lt; end; {" style="text;strokeColor=none;fillColor=none;align=left;verticalAlign=top;spacingLeft=4;spacingRight=4;overflow=hidden;rotatable=0;points=[[0,0.5],[1,0.5]];portConstraint=eastwest;rounded=1;shadow=0;labelBackgroundColor=none;comic=0;strokeWidth=1;fontFamily=Verdana;fontSize=12;fontColor=default;startSize=26;html=1;" parent="V4z1n50acwo4eVlVMmbz-101" vertex="1">
          <mxGeometry y="156" width="260" height="26" as="geometry" />
        </mxCell>
        <mxCell id="Ibjzuw5B-IYvQQM0vuAL-3" value="&amp;nbsp; ..." style="text;strokeColor=none;fillColor=none;align=left;verticalAlign=top;spacingLeft=4;spacingRight=4;overflow=hidden;rotatable=0;points=[[0,0.5],[1,0.5]];portConstraint=eastwest;whiteSpace=wrap;html=1;fontFamily=Verdana;rounded=1;shadow=0;labelBackgroundColor=none;comic=0;strokeWidth=1;startSize=26;" parent="V4z1n50acwo4eVlVMmbz-101" vertex="1">
          <mxGeometry y="182" width="260" height="26" as="geometry" />
        </mxCell>
        <mxCell id="Ibjzuw5B-IYvQQM0vuAL-4" value="&amp;nbsp; &amp;nbsp; p.buf.writeString(format[lasti:i])" style="text;strokeColor=none;fillColor=none;align=left;verticalAlign=top;spacingLeft=4;spacingRight=4;overflow=hidden;rotatable=0;points=[[0,0.5],[1,0.5]];portConstraint=eastwest;whiteSpace=wrap;html=1;fontFamily=Verdana;rounded=1;shadow=0;labelBackgroundColor=none;comic=0;strokeWidth=1;startSize=26;" parent="V4z1n50acwo4eVlVMmbz-101" vertex="1">
          <mxGeometry y="208" width="260" height="26" as="geometry" />
        </mxCell>
        <mxCell id="Ibjzuw5B-IYvQQM0vuAL-15" value="&amp;nbsp; &amp;nbsp;..." style="text;strokeColor=none;fillColor=none;align=left;verticalAlign=top;spacingLeft=4;spacingRight=4;overflow=hidden;rotatable=0;points=[[0,0.5],[1,0.5]];portConstraint=eastwest;whiteSpace=wrap;html=1;fontFamily=Verdana;rounded=1;shadow=0;labelBackgroundColor=none;comic=0;strokeWidth=1;startSize=26;" parent="V4z1n50acwo4eVlVMmbz-101" vertex="1">
          <mxGeometry y="234" width="260" height="26" as="geometry" />
        </mxCell>
        <mxCell id="Ibjzuw5B-IYvQQM0vuAL-16" value="&amp;nbsp; &amp;nbsp; p.printArg(a[argNum], rune(c))" style="text;strokeColor=none;fillColor=none;align=left;verticalAlign=top;spacingLeft=4;spacingRight=4;overflow=hidden;rotatable=0;points=[[0,0.5],[1,0.5]];portConstraint=eastwest;whiteSpace=wrap;html=1;fontFamily=Verdana;rounded=1;shadow=0;labelBackgroundColor=none;comic=0;strokeWidth=1;startSize=26;" parent="V4z1n50acwo4eVlVMmbz-101" vertex="1">
          <mxGeometry y="260" width="260" height="26" as="geometry" />
        </mxCell>
        <mxCell id="Ibjzuw5B-IYvQQM0vuAL-8" value="buffer []byte" style="swimlane;fontStyle=0;childLayout=stackLayout;horizontal=1;startSize=26;fillColor=none;horizontalStack=0;resizeParent=1;resizeParentMax=0;resizeLast=0;collapsible=1;marginBottom=0;whiteSpace=wrap;html=1;fontFamily=Verdana;rounded=1;shadow=0;labelBackgroundColor=none;comic=0;strokeWidth=1;" parent="1" vertex="1">
          <mxGeometry x="1200" y="-510" width="170" height="130" as="geometry" />
        </mxCell>
        <mxCell id="Ibjzuw5B-IYvQQM0vuAL-9" value="+ write(p []byte)" style="text;strokeColor=none;fillColor=none;align=left;verticalAlign=top;spacingLeft=4;spacingRight=4;overflow=hidden;rotatable=0;points=[[0,0.5],[1,0.5]];portConstraint=eastwest;whiteSpace=wrap;html=1;fontFamily=Verdana;rounded=1;shadow=0;labelBackgroundColor=none;comic=0;strokeWidth=1;startSize=26;" parent="Ibjzuw5B-IYvQQM0vuAL-8" vertex="1">
          <mxGeometry y="26" width="170" height="26" as="geometry" />
        </mxCell>
        <mxCell id="Ibjzuw5B-IYvQQM0vuAL-10" value="+ writeString(s string)" style="text;strokeColor=none;fillColor=none;align=left;verticalAlign=top;spacingLeft=4;spacingRight=4;overflow=hidden;rotatable=0;points=[[0,0.5],[1,0.5]];portConstraint=eastwest;whiteSpace=wrap;html=1;fontFamily=Verdana;rounded=1;shadow=0;labelBackgroundColor=none;comic=0;strokeWidth=1;startSize=26;" parent="Ibjzuw5B-IYvQQM0vuAL-8" vertex="1">
          <mxGeometry y="52" width="170" height="26" as="geometry" />
        </mxCell>
        <mxCell id="Ibjzuw5B-IYvQQM0vuAL-13" value="+ writeByte(c string)" style="text;strokeColor=none;fillColor=none;align=left;verticalAlign=top;spacingLeft=4;spacingRight=4;overflow=hidden;rotatable=0;points=[[0,0.5],[1,0.5]];portConstraint=eastwest;whiteSpace=wrap;html=1;fontFamily=Verdana;rounded=1;shadow=0;labelBackgroundColor=none;comic=0;strokeWidth=1;startSize=26;" parent="Ibjzuw5B-IYvQQM0vuAL-8" vertex="1">
          <mxGeometry y="78" width="170" height="26" as="geometry" />
        </mxCell>
        <mxCell id="Ibjzuw5B-IYvQQM0vuAL-14" value="+ writeRune(r rune)" style="text;strokeColor=none;fillColor=none;align=left;verticalAlign=top;spacingLeft=4;spacingRight=4;overflow=hidden;rotatable=0;points=[[0,0.5],[1,0.5]];portConstraint=eastwest;whiteSpace=wrap;html=1;fontFamily=Verdana;rounded=1;shadow=0;labelBackgroundColor=none;comic=0;strokeWidth=1;startSize=26;" parent="Ibjzuw5B-IYvQQM0vuAL-8" vertex="1">
          <mxGeometry y="104" width="170" height="26" as="geometry" />
        </mxCell>
        <mxCell id="Ibjzuw5B-IYvQQM0vuAL-12" value="" style="edgeStyle=orthogonalEdgeStyle;rounded=0;orthogonalLoop=1;jettySize=auto;html=1;" parent="1" source="V4z1n50acwo4eVlVMmbz-18" target="Ibjzuw5B-IYvQQM0vuAL-8" edge="1">
          <mxGeometry relative="1" as="geometry" />
        </mxCell>
        <mxCell id="Ibjzuw5B-IYvQQM0vuAL-18" style="edgeStyle=orthogonalEdgeStyle;rounded=0;orthogonalLoop=1;jettySize=auto;html=1;" parent="1" source="Ibjzuw5B-IYvQQM0vuAL-16" target="Ibjzuw5B-IYvQQM0vuAL-17" edge="1">
          <mxGeometry relative="1" as="geometry">
            <Array as="points">
              <mxPoint x="760" y="103" />
              <mxPoint x="760" y="-273" />
            </Array>
          </mxGeometry>
        </mxCell>
        <mxCell id="dQgiU0AN3nxCyF5o8pJ6-2" value="printArg(arg any, verb rune)" style="swimlane;fontStyle=0;childLayout=stackLayout;horizontal=1;startSize=26;fillColor=none;horizontalStack=0;resizeParent=1;resizeParentMax=0;resizeLast=0;collapsible=1;marginBottom=0;whiteSpace=wrap;html=1;fontFamily=Verdana;rounded=1;shadow=0;labelBackgroundColor=none;comic=0;strokeWidth=1;" parent="1" vertex="1">
          <mxGeometry x="1400" y="-120" width="250" height="52" as="geometry" />
        </mxCell>
        <mxCell id="dQgiU0AN3nxCyF5o8pJ6-6" value="" style="edgeStyle=orthogonalEdgeStyle;rounded=0;orthogonalLoop=1;jettySize=auto;html=1;" parent="1" source="Ibjzuw5B-IYvQQM0vuAL-17" target="dQgiU0AN3nxCyF5o8pJ6-2" edge="1">
          <mxGeometry relative="1" as="geometry" />
        </mxCell>
      </root>
    </mxGraphModel>
  </diagram>
</mxfile>
